<svg xmlns="http://www.w3.org/2000/svg" viewBox="0 0 800 640">
<style>.box{fill:#202745;stroke:#b6a8f0;stroke-width:2.5}.line{fill:none;stroke:#c1b5f4;stroke-width:3;stroke-linecap:round}.dot{fill:#c9f574;stroke:#28304e;stroke-width:5}.title{fill:#fff;font:700 20px Inter,Arial,sans-serif}.copy{fill:#cbd1e7;font:500 15px Inter,Arial,sans-serif}</style>
<g>
<path class="line" d="M278 118 L260 165 L246 224"/>
<circle class="dot" cx="246" cy="224" r="7"/>
<rect class="box" x="20" y="34" width="292" height="86" rx="18"/>
<text class="title" x="42" y="68">Prefrontaalne ajukoor</text>
<text class="copy" x="42" y="95">otsused · enesekontroll</text>
</g>
<g>
<path class="line" d="M555 118 L520 154 L474 190"/>
<circle class="dot" cx="474" cy="190" r="7"/>
<rect class="box" x="514" y="34" width="266" height="86" rx="18"/>
<text class="title" x="536" y="60">
<tspan x="536">Frontoparietaalne</tspan>
<tspan x="536" dy="24">võrgustik</tspan>
</text>
<text class="copy" x="536" y="106">tähelepanu · fookus</text>
</g>
<g>
<path class="line" d="M292 480 L340 397 L405 336"/>
<circle class="dot" cx="405" cy="336" r="7"/>
<rect class="box" x="20" y="480" width="330" height="120" rx="18"/>
<text class="title" x="42" y="520">Hipokampus</text>
<text class="copy" x="42" y="551">mälu · sisemine struktuur</text>
</g>
<g>
<path class="line" d="M486 480 L530 430 L548 389"/>
<circle class="dot" cx="548" cy="389" r="7"/>
<rect class="box" x="390" y="480" width="390" height="120" rx="18"/>
<text class="title" x="412" y="512">
<tspan x="412">Väikeaju ja</tspan>
<tspan x="412" dy="26">motoorsed süsteemid</tspan>
</text>
<text class="copy" x="412" y="571">koordinatsioon · reaktsioonikiirus</text>
</g>
</svg>
